<?xml version="1.0" standalone="no"?>
<!DOCTYPE svg PUBLIC "-//W3C//DTD SVG 20010904//EN"
 "http://www.w3.org/TR/2001/REC-SVG-20010904/DTD/svg10.dtd">
<svg version="1.0" xmlns="http://www.w3.org/2000/svg"
 width="700.000000pt" height="700.000000pt" viewBox="0 0 700.000000 700.000000"
 preserveAspectRatio="xMidYMid meet">
<metadata>
Created by potrace 1.14, written by Peter Selinger 2001-2017
</metadata>
<g transform="translate(0.000000,700.000000) scale(0.100000,-0.100000)"
fill="#000000" stroke="none">
<path d="M3138 6415 c-2 -1 -42 -5 -89 -8 -719 -52 -1436 -408 -1926 -956
-287 -321 -504 -708 -629 -1119 -35 -115 -82 -329 -90 -412 -3 -25 -7 -54 -9
-65 -23 -112 -23 -627 0 -715 2 -8 7 -35 10 -60 53 -411 227 -858 474 -1220
241 -353 562 -655 925 -869 126 -74 284 -152 411 -201 61 -24 119 -46 130 -51
35 -14 178 -56 245 -72 201 -49 395 -75 595 -81 l105 -3 0 293 0 294 -90 1
c-49 1 -93 2 -97 3 -5 1 -44 6 -88 10 -44 5 -90 10 -102 12 -13 2 -35 6 -50 9
-307 53 -606 172 -856 341 -145 98 -241 178 -364 303 -409 412 -634 897 -678
1466 -6 83 -6 293 0 350 8 70 22 173 31 225 2 14 7 45 10 70 3 25 8 49 11 53
3 4 314 -301 691 -679 378 -378 696 -692 707 -699 13 -8 65 -12 155 -11 l135
1 3 437 2 438 -292 2 -293 3 0 290 0 290 310 -1 c387 -1 423 7 504 113 56 72
61 111 61 454 l0 306 323 1 c359 1 406 7 526 65 45 22 90 56 141 107 123 122
169 233 175 418 2 57 5 105 7 108 9 9 319 -155 413 -218 456 -306 792 -763
946 -1287 10 -36 23 -67 28 -70 5 -3 139 -6 298 -6 280 1 288 2 286 20 -10 99
-73 315 -145 500 -139 355 -341 663 -618 944 -255 258 -501 438 -805 589 -152
75 -254 114 -510 192 -46 14 -263 57 -325 65 -30 4 -66 8 -80 10 -87 12 -177
18 -337 20 -101 1 -184 1 -185 0z"/>
<path d="M5817 3666 c-69 -25 -83 -46 -117 -176 -31 -115 -60 -169 -118 -221
-76 -69 -109 -83 -268 -117 -49 -11 -104 -27 -121 -36 -72 -37 -97 -124 -54
-184 31 -44 46 -50 197 -87 230 -57 311 -130 362 -326 29 -110 46 -144 83
-167 102 -62 209 -17 243 103 54 191 57 197 126 266 64 63 125 98 202 113 113
22 177 39 202 54 60 35 85 101 61 159 -22 53 -70 79 -195 107 -140 31 -192 53
-253 107 -63 54 -89 103 -125 227 -16 56 -37 113 -46 127 -33 50 -115 74 -179
51z m99 -564 c27 -26 65 -59 84 -74 l35 -26 -30 -23 c-16 -13 -54 -46 -82 -74
l-53 -52 -57 56 c-32 31 -69 64 -83 73 l-25 17 35 27 c28 22 68 61 126 123 0
1 23 -20 50 -47z"/>
<path d="M4385 3241 c-43 -12 -84 -46 -99 -80 -9 -20 -41 -115 -71 -211 -75
-235 -91 -277 -127 -333 -57 -89 -166 -173 -282 -217 -15 -6 -143 -40 -283
-76 -160 -41 -266 -73 -283 -86 -79 -58 -65 -175 25 -218 22 -10 150 -46 283
-80 258 -64 348 -98 419 -156 122 -100 147 -146 243 -449 39 -120 77 -230 86
-243 39 -59 135 -80 204 -44 47 25 66 66 145 316 37 116 75 226 85 246 51 100
169 206 276 248 39 16 351 101 424 117 133 28 189 56 215 105 29 56 8 128 -48
165 -19 12 -376 111 -475 131 -97 20 -216 82 -288 151 -83 80 -109 130 -180
352 -36 113 -71 222 -77 241 -16 50 -44 88 -77 105 -32 16 -86 24 -115 16z
m175 -845 c94 -108 255 -215 380 -252 l25 -7 -30 -10 c-67 -21 -179 -81 -242
-129 -109 -82 -187 -174 -246 -292 l-25 -49 -18 39 c-51 111 -169 249 -279
324 -40 27 -143 79 -214 107 -21 8 -17 11 48 37 182 71 347 220 433 390 l30
59 42 -77 c23 -42 66 -106 96 -140z"/>
<path d="M5555 1713 c-45 -24 -61 -50 -101 -162 -57 -157 -82 -180 -259 -231
-134 -39 -160 -53 -184 -103 -29 -59 -11 -125 43 -161 13 -8 77 -31 142 -51
181 -54 200 -72 258 -233 37 -104 51 -127 90 -151 64 -40 140 -33 193 18 17
16 34 40 38 53 25 80 81 207 102 229 30 32 63 47 214 94 129 40 162 66 170
135 7 59 -52 140 -102 140 -9 0 -19 3 -23 7 -3 4 -12 8 -19 10 -50 10 -157 44
-182 57 -54 27 -85 70 -125 175 -46 121 -60 145 -103 171 -39 24 -110 26 -152
3z m122 -512 l43 -39 -43 -36 c-23 -20 -46 -36 -51 -36 -5 0 -26 17 -47 37
l-39 38 43 37 c23 20 44 37 47 37 3 0 24 -17 47 -38z"/>
</g>
</svg>
